<svg width="1817" height="913" viewBox="0 0 1817 913" fill="none" xmlns="http://www.w3.org/2000/svg">
<path d="M11.0007 523C-18.166 415.333 -7.09937 146.5 270.501 -67.5H707.001C766.167 -29.6667 938.9 136.7 896.5 219.5C843.5 323 787 285.5 811 426C835 566.5 1022.5 785 567.001 877.5C202.601 951.5 44.5006 672 11.0007 523Z" fill="url(#paint0_linear_1_12)"/>
<path d="M924.5 219.5C946 185 895.001 149.5 794.501 -67.5L1880.5 -139C1869.83 -76.3333 1831.6 69.1 1764 149.5C1679.5 250 1681.5 388 1697.5 591.5C1713.5 795 1578.5 792.5 1406.5 877.5C1234.5 962.5 707.001 877.5 853.001 793C999.001 708.5 922.001 511 853.001 426C784.001 341 903 254 924.5 219.5Z" fill="url(#paint1_linear_1_12)"/>
<defs>
<linearGradient id="paint0_linear_1_12" x1="940.25" y1="-139" x2="940.25" y2="983.146" gradientUnits="userSpaceOnUse">
<stop stop-color="#3173D7"/>
<stop offset="1" stop-color="#8E31D7"/>
</linearGradient>
<linearGradient id="paint1_linear_1_12" x1="940.25" y1="-139" x2="940.25" y2="983.146" gradientUnits="userSpaceOnUse">
<stop stop-color="#3173D7"/>
<stop offset="1" stop-color="#8E31D7"/>
</linearGradient>
</defs>
</svg>
