<svg width="270" height="236" viewBox="0 0 270 236" fill="none" xmlns="http://www.w3.org/2000/svg">
<g clip-path="url(#clip0_38_47)">
<path d="M193.44 51.0436C207.962 58.8174 217.393 66.9259 221.731 75.369C226.263 83.7539 225.848 92.9541 220.486 102.969C217.605 108.353 214.028 112.478 209.755 115.345C205.674 118.153 201.198 120.347 196.326 121.927C191.454 123.507 186.423 125.082 181.233 126.653C176.169 128.29 171.212 130.63 166.362 133.671C161.58 136.588 157.171 140.912 153.137 146.644L122.339 130.158C125.315 123.698 128.735 118.361 132.6 114.149C136.591 110.004 140.718 106.656 144.982 104.107C149.313 101.432 153.439 99.2917 157.359 97.6856C161.346 95.9543 164.819 94.431 167.778 93.1158C170.737 91.8005 172.873 90.3671 174.187 88.8155C176.086 86.7719 176.456 84.8763 175.298 83.1288C174.14 81.3813 171.37 79.3347 166.988 76.9892C160.603 73.5714 155.345 70.7568 151.214 68.5453C147.082 66.3338 143.264 64.2898 139.759 62.4134C136.379 60.6039 132.498 58.5265 128.116 56.1809L141.049 29.7636C145.332 31.09 149.206 32.2778 152.671 33.3273C156.261 34.4437 159.943 35.6898 163.716 37.0654C167.49 38.4411 171.697 40.21 176.338 42.3722C181.104 44.6013 186.805 47.4918 193.44 51.0436ZM137.835 148.6C142.968 151.348 145.937 154.226 146.743 157.234C147.741 160.184 146.866 164.226 144.118 169.359L139.997 177.058C137.249 182.191 134.338 185.223 131.262 186.153C128.379 187.026 124.371 186.089 119.238 183.341L110.412 178.616C105.28 175.869 102.214 173.02 101.216 170.07C100.411 167.062 101.382 162.991 104.129 157.858L108.251 150.159C110.998 145.026 113.814 142.023 116.697 141.151C119.772 140.22 123.876 141.128 129.009 143.876L137.835 148.6Z" fill="url(#paint0_linear_38_47)"/>
<path d="M85.5279 40.666C96.0109 41.5141 103.599 43.8562 108.291 47.6924C113.082 51.4456 115.184 56.937 114.6 64.1667C114.285 68.0527 113.243 71.3795 111.473 74.1471C109.8 76.8316 107.739 79.2574 105.29 81.4242C102.84 83.5911 100.297 85.7959 97.6595 88.0385C95.1124 90.2885 92.8073 92.9218 90.744 95.9386C88.688 98.865 87.2097 102.52 86.3093 106.905L64.0779 105.106C64.1723 100.566 64.814 96.5698 66.0028 93.1184C67.282 89.6744 68.8446 86.6626 70.6906 84.083C72.5439 81.4131 74.4132 79.1083 76.2984 77.1687C78.1909 75.1387 79.8356 73.3615 81.2324 71.8372C82.6292 70.3128 83.5143 68.929 83.8878 67.6858C84.4785 66.0053 84.2121 64.8012 83.0885 64.0736C81.9648 63.3459 79.8215 62.8542 76.6585 62.5983C72.0495 62.2254 68.2539 61.9184 65.2717 61.6771C62.2894 61.4358 59.5331 61.2129 57.0027 61.0082C54.5627 60.8108 51.7611 60.5841 48.5981 60.3282L49.4337 41.5665C52.2791 41.2509 54.8497 40.9586 57.1455 40.6895C59.5318 40.4277 62.0047 40.2185 64.5643 40.0617C67.124 39.9049 70.0378 39.8677 73.3058 39.9502C76.6641 40.0399 80.7382 40.2786 85.5279 40.666ZM77.8508 111.951C81.556 112.251 84.0279 113.179 85.2665 114.734C86.6028 116.207 87.1211 118.796 86.8213 122.501L86.3717 128.059C86.072 131.764 85.1407 134.281 83.5777 135.61C82.1125 136.856 79.5273 137.329 75.822 137.029L69.4509 136.514C65.7456 136.214 63.2249 135.328 61.8886 133.855C60.65 132.3 60.1806 129.669 60.4803 125.964L60.9299 120.406C61.2297 116.701 62.1122 114.225 63.5774 112.98C65.1403 111.651 67.7744 111.136 71.4796 111.436L77.8508 111.951Z" fill="url(#paint1_linear_38_47)"/>
<path d="M225.807 164.171C230.524 172.073 232.707 178.669 232.355 183.961C232.111 189.28 229.265 193.567 223.815 196.82C220.886 198.568 217.986 199.514 215.115 199.657C212.353 199.828 209.578 199.59 206.79 198.945C204.002 198.299 201.14 197.605 198.203 196.864C195.306 196.191 192.259 195.885 189.062 195.946C185.932 195.966 182.577 196.768 178.995 198.352L168.992 181.594C172.276 179.357 175.449 177.786 178.513 176.881C181.617 176.044 184.556 175.629 187.332 175.635C190.176 175.601 192.767 175.763 195.106 176.122C197.514 176.441 199.615 176.711 201.411 176.932C203.206 177.154 204.642 177.082 205.717 176.718C207.215 176.286 207.938 175.484 207.886 174.314C207.834 173.144 207.097 171.367 205.674 168.983C203.6 165.509 201.892 162.648 200.55 160.4C199.208 158.152 197.968 156.074 196.829 154.167C195.731 152.327 194.471 150.216 193.048 147.832L206.843 138.903C208.513 140.771 210.026 142.455 211.383 143.954C212.781 145.522 214.185 147.178 215.596 148.923C217.008 150.668 218.513 152.726 220.113 155.097C221.754 157.536 223.652 160.56 225.807 164.171ZM171.105 194.885C172.772 197.678 173.366 199.91 172.886 201.583C172.515 203.283 170.932 204.966 168.14 206.633L163.95 209.134C161.157 210.801 158.891 211.415 157.15 210.976C155.518 210.564 153.869 208.962 152.202 206.169L149.335 201.366C147.668 198.574 147.02 196.327 147.391 194.627C147.871 192.955 149.507 191.285 152.3 189.618L156.489 187.117C159.282 185.45 161.495 184.822 163.126 185.234C164.867 185.673 166.571 187.289 168.238 190.082L171.105 194.885Z" fill="url(#paint2_linear_38_47)"/>
</g>
<defs>
<linearGradient id="paint0_linear_38_47" x1="219.001" y1="-4.85328" x2="98.185" y2="220.844" gradientUnits="userSpaceOnUse">
<stop stop-color="#3173D7"/>
<stop offset="1" stop-color="#8E31D7"/>
</linearGradient>
<linearGradient id="paint1_linear_38_47" x1="106.958" y1="3.10378" x2="93.815" y2="165.573" gradientUnits="userSpaceOnUse">
<stop stop-color="#3173D7"/>
<stop offset="1" stop-color="#8E31D7"/>
</linearGradient>
<linearGradient id="paint2_linear_38_47" x1="267.141" y1="166.549" x2="144.354" y2="239.846" gradientUnits="userSpaceOnUse">
<stop stop-color="#3173D7"/>
<stop offset="1" stop-color="#8E31D7"/>
</linearGradient>
<clipPath id="clip0_38_47">
<rect width="226" height="174" fill="white" transform="translate(54.4051) rotate(18.2204)"/>
</clipPath>
</defs>
</svg>
